<svg width="23" height="23" viewBox="0 0 23 23" fill="none" xmlns="http://www.w3.org/2000/svg">
<path d="M23 11.5C23 11.8155 22.8747 12.1181 22.6516 12.3412C22.4285 12.5643 22.1259 12.6897 21.8103 12.6897H12.6897V21.8103C12.6897 22.1259 12.5643 22.4285 12.3412 22.6516C12.1181 22.8747 11.8155 23 11.5 23C11.1845 23 10.8819 22.8747 10.6588 22.6516C10.4357 22.4285 10.3103 22.1259 10.3103 21.8103V12.6897H1.18966C0.874139 12.6897 0.571546 12.5643 0.348442 12.3412C0.125338 12.1181 0 11.8155 0 11.5C0 11.1845 0.125338 10.8819 0.348442 10.6588C0.571546 10.4357 0.874139 10.3103 1.18966 10.3103H10.3103V1.18966C10.3103 0.874139 10.4357 0.571546 10.6588 0.348442C10.8819 0.125338 11.1845 0 11.5 0C11.8155 0 12.1181 0.125338 12.3412 0.348442C12.5643 0.571546 12.6897 0.874139 12.6897 1.18966V10.3103H21.8103C22.1259 10.3103 22.4285 10.4357 22.6516 10.6588C22.8747 10.8819 23 11.1845 23 11.5Z" fill="black"/>
</svg>
